<mxfile host="app.diagrams.net" modified="2022-08-10T06:23:42.204Z" agent="5.0 (Macintosh; Intel Mac OS X 10_15_7) AppleWebKit/537.36 (KHTML, like Gecko) Chrome/104.0.5112.81 Safari/537.36 Edg/104.0.1293.47" etag="6qpM1PoKLwlAhavOxwxx" version="20.2.2" type="github">
  <diagram id="c7ozrk_fZ8QUGNJ9KNhC" name="第 1 页">
    <mxGraphModel dx="1678" dy="2074" grid="1" gridSize="10" guides="1" tooltips="1" connect="1" arrows="1" fold="1" page="1" pageScale="1" pageWidth="827" pageHeight="1169" math="0" shadow="0">
      <root>
        <mxCell id="0" />
        <mxCell id="1" parent="0" />
        <mxCell id="vVWOFLdrRgywpa_xTOqv-93" style="edgeStyle=orthogonalEdgeStyle;rounded=0;orthogonalLoop=1;jettySize=auto;html=1;entryX=0;entryY=0.5;entryDx=0;entryDy=0;fillColor=#99CCFF;" edge="1" parent="1" source="vVWOFLdrRgywpa_xTOqv-4" target="vVWOFLdrRgywpa_xTOqv-92">
          <mxGeometry relative="1" as="geometry">
            <Array as="points">
              <mxPoint x="280" y="-30" />
              <mxPoint x="314" y="-30" />
              <mxPoint x="314" y="-45" />
            </Array>
          </mxGeometry>
        </mxCell>
        <mxCell id="vVWOFLdrRgywpa_xTOqv-4" value="Web端（JoySpace）" style="html=1;fillColor=#99CCFF;" vertex="1" parent="1">
          <mxGeometry x="200" y="-10" width="120" height="50" as="geometry" />
        </mxCell>
        <mxCell id="vVWOFLdrRgywpa_xTOqv-94" style="edgeStyle=orthogonalEdgeStyle;rounded=0;orthogonalLoop=1;jettySize=auto;html=1;entryX=1;entryY=0.5;entryDx=0;entryDy=0;fillColor=#99CCFF;" edge="1" parent="1" source="vVWOFLdrRgywpa_xTOqv-5" target="vVWOFLdrRgywpa_xTOqv-92">
          <mxGeometry relative="1" as="geometry">
            <Array as="points">
              <mxPoint x="480" y="-30" />
              <mxPoint x="434" y="-30" />
              <mxPoint x="434" y="-45" />
            </Array>
          </mxGeometry>
        </mxCell>
        <mxCell id="vVWOFLdrRgywpa_xTOqv-5" value="桌面端（ME）" style="html=1;fillColor=#99CCFF;" vertex="1" parent="1">
          <mxGeometry x="440" y="-10" width="110" height="50" as="geometry" />
        </mxCell>
        <mxCell id="vVWOFLdrRgywpa_xTOqv-6" value="统一网关" style="html=1;fillColor=#99CCFF;" vertex="1" parent="1">
          <mxGeometry x="190" y="200" width="420" height="40" as="geometry" />
        </mxCell>
        <mxCell id="vVWOFLdrRgywpa_xTOqv-7" value="" style="html=1;fillColor=#99CCFF;" vertex="1" parent="1">
          <mxGeometry x="210" y="350" width="370" height="210" as="geometry" />
        </mxCell>
        <mxCell id="vVWOFLdrRgywpa_xTOqv-9" value="&amp;lt;&amp;lt;component&amp;gt;&amp;gt;&lt;br&gt;词条后端服务" style="html=1;fillColor=#99CCFF;" vertex="1" parent="1">
          <mxGeometry x="300" y="415" width="190" height="95" as="geometry" />
        </mxCell>
        <mxCell id="vVWOFLdrRgywpa_xTOqv-10" value="" style="shape=module;align=left;spacingLeft=20;align=center;verticalAlign=top;fillColor=#99CCFF;" vertex="1" parent="1">
          <mxGeometry x="450" y="420" width="30" height="50" as="geometry" />
        </mxCell>
        <mxCell id="vVWOFLdrRgywpa_xTOqv-13" value="百科系统应用" style="text;html=1;strokeColor=none;fillColor=#99CCFF;align=center;verticalAlign=middle;whiteSpace=wrap;rounded=0;" vertex="1" parent="1">
          <mxGeometry x="350" y="360" width="90" height="30" as="geometry" />
        </mxCell>
        <mxCell id="vVWOFLdrRgywpa_xTOqv-14" value="" style="endArrow=none;html=1;rounded=0;exitX=0.214;exitY=-0.01;exitDx=0;exitDy=0;exitPerimeter=0;fillColor=#99CCFF;" edge="1" parent="1" source="vVWOFLdrRgywpa_xTOqv-7">
          <mxGeometry width="50" height="50" relative="1" as="geometry">
            <mxPoint x="290" y="340" as="sourcePoint" />
            <mxPoint x="290" y="240" as="targetPoint" />
          </mxGeometry>
        </mxCell>
        <mxCell id="vVWOFLdrRgywpa_xTOqv-15" value="http" style="edgeLabel;html=1;align=center;verticalAlign=middle;resizable=0;points=[];fillColor=#99CCFF;" vertex="1" connectable="0" parent="vVWOFLdrRgywpa_xTOqv-14">
          <mxGeometry x="0.0361" relative="1" as="geometry">
            <mxPoint as="offset" />
          </mxGeometry>
        </mxCell>
        <mxCell id="vVWOFLdrRgywpa_xTOqv-16" value="" style="endArrow=none;html=1;rounded=0;exitX=0.216;exitY=-0.01;exitDx=0;exitDy=0;exitPerimeter=0;fillColor=#99CCFF;" edge="1" parent="1">
          <mxGeometry width="50" height="50" relative="1" as="geometry">
            <mxPoint x="330.00000000000006" y="350.0000000000001" as="sourcePoint" />
            <mxPoint x="330.08" y="242.1" as="targetPoint" />
          </mxGeometry>
        </mxCell>
        <mxCell id="vVWOFLdrRgywpa_xTOqv-17" value="http" style="edgeLabel;html=1;align=center;verticalAlign=middle;resizable=0;points=[];fillColor=#99CCFF;" vertex="1" connectable="0" parent="vVWOFLdrRgywpa_xTOqv-16">
          <mxGeometry x="0.0361" relative="1" as="geometry">
            <mxPoint as="offset" />
          </mxGeometry>
        </mxCell>
        <mxCell id="vVWOFLdrRgywpa_xTOqv-18" value="" style="endArrow=none;html=1;rounded=0;exitX=0.216;exitY=-0.01;exitDx=0;exitDy=0;exitPerimeter=0;fillColor=#99CCFF;" edge="1" parent="1">
          <mxGeometry width="50" height="50" relative="1" as="geometry">
            <mxPoint x="380.00000000000006" y="350.0000000000001" as="sourcePoint" />
            <mxPoint x="380.08" y="242.1" as="targetPoint" />
          </mxGeometry>
        </mxCell>
        <mxCell id="vVWOFLdrRgywpa_xTOqv-19" value="http" style="edgeLabel;html=1;align=center;verticalAlign=middle;resizable=0;points=[];fillColor=#99CCFF;" vertex="1" connectable="0" parent="vVWOFLdrRgywpa_xTOqv-18">
          <mxGeometry x="0.0361" relative="1" as="geometry">
            <mxPoint as="offset" />
          </mxGeometry>
        </mxCell>
        <mxCell id="vVWOFLdrRgywpa_xTOqv-20" value="" style="endArrow=none;html=1;rounded=0;exitX=0.216;exitY=-0.01;exitDx=0;exitDy=0;exitPerimeter=0;fillColor=#99CCFF;" edge="1" parent="1">
          <mxGeometry width="50" height="50" relative="1" as="geometry">
            <mxPoint x="430.0000000000001" y="347.9000000000001" as="sourcePoint" />
            <mxPoint x="430.08000000000004" y="240" as="targetPoint" />
          </mxGeometry>
        </mxCell>
        <mxCell id="vVWOFLdrRgywpa_xTOqv-21" value="http" style="edgeLabel;html=1;align=center;verticalAlign=middle;resizable=0;points=[];fillColor=#99CCFF;" vertex="1" connectable="0" parent="vVWOFLdrRgywpa_xTOqv-20">
          <mxGeometry x="0.0361" relative="1" as="geometry">
            <mxPoint as="offset" />
          </mxGeometry>
        </mxCell>
        <mxCell id="vVWOFLdrRgywpa_xTOqv-22" value="" style="endArrow=none;html=1;rounded=0;exitX=0.216;exitY=-0.01;exitDx=0;exitDy=0;exitPerimeter=0;fillColor=#99CCFF;" edge="1" parent="1">
          <mxGeometry width="50" height="50" relative="1" as="geometry">
            <mxPoint x="470.0000000000001" y="350.0000000000001" as="sourcePoint" />
            <mxPoint x="470.08000000000004" y="242.1" as="targetPoint" />
          </mxGeometry>
        </mxCell>
        <mxCell id="vVWOFLdrRgywpa_xTOqv-23" value="http" style="edgeLabel;html=1;align=center;verticalAlign=middle;resizable=0;points=[];fillColor=#99CCFF;" vertex="1" connectable="0" parent="vVWOFLdrRgywpa_xTOqv-22">
          <mxGeometry x="0.0361" relative="1" as="geometry">
            <mxPoint as="offset" />
          </mxGeometry>
        </mxCell>
        <mxCell id="vVWOFLdrRgywpa_xTOqv-24" value="" style="endArrow=none;html=1;rounded=0;exitX=0.216;exitY=-0.01;exitDx=0;exitDy=0;exitPerimeter=0;fillColor=#99CCFF;" edge="1" parent="1">
          <mxGeometry width="50" height="50" relative="1" as="geometry">
            <mxPoint x="520.0000000000001" y="350.0000000000001" as="sourcePoint" />
            <mxPoint x="520.08" y="242.1" as="targetPoint" />
          </mxGeometry>
        </mxCell>
        <mxCell id="vVWOFLdrRgywpa_xTOqv-25" value="http" style="edgeLabel;html=1;align=center;verticalAlign=middle;resizable=0;points=[];fillColor=#99CCFF;" vertex="1" connectable="0" parent="vVWOFLdrRgywpa_xTOqv-24">
          <mxGeometry x="0.0361" relative="1" as="geometry">
            <mxPoint as="offset" />
          </mxGeometry>
        </mxCell>
        <mxCell id="vVWOFLdrRgywpa_xTOqv-26" value="" style="endArrow=none;html=1;rounded=0;fillColor=#99CCFF;" edge="1" parent="1">
          <mxGeometry width="50" height="50" relative="1" as="geometry">
            <mxPoint x="250" y="348" as="sourcePoint" />
            <mxPoint x="250.07999999999998" y="240" as="targetPoint" />
          </mxGeometry>
        </mxCell>
        <mxCell id="vVWOFLdrRgywpa_xTOqv-27" value="http" style="edgeLabel;html=1;align=center;verticalAlign=middle;resizable=0;points=[];fillColor=#99CCFF;" vertex="1" connectable="0" parent="vVWOFLdrRgywpa_xTOqv-26">
          <mxGeometry x="0.0361" relative="1" as="geometry">
            <mxPoint as="offset" />
          </mxGeometry>
        </mxCell>
        <mxCell id="vVWOFLdrRgywpa_xTOqv-28" value="" style="endArrow=classic;html=1;rounded=0;exitX=0.25;exitY=1;exitDx=0;exitDy=0;fillColor=#99CCFF;" edge="1" parent="1">
          <mxGeometry width="50" height="50" relative="1" as="geometry">
            <mxPoint x="217.5" y="40" as="sourcePoint" />
            <mxPoint x="220" y="200" as="targetPoint" />
          </mxGeometry>
        </mxCell>
        <mxCell id="vVWOFLdrRgywpa_xTOqv-30" value="词条版本拉取" style="edgeLabel;html=1;align=center;verticalAlign=middle;resizable=0;points=[];rotation=90;fillColor=#99CCFF;" vertex="1" connectable="0" parent="vVWOFLdrRgywpa_xTOqv-28">
          <mxGeometry x="-0.0123" y="1" relative="1" as="geometry">
            <mxPoint as="offset" />
          </mxGeometry>
        </mxCell>
        <mxCell id="vVWOFLdrRgywpa_xTOqv-35" value="" style="endArrow=classic;html=1;rounded=0;exitX=0.25;exitY=1;exitDx=0;exitDy=0;fillColor=#99CCFF;" edge="1" parent="1">
          <mxGeometry width="50" height="50" relative="1" as="geometry">
            <mxPoint x="243.75" y="40" as="sourcePoint" />
            <mxPoint x="246.25" y="200" as="targetPoint" />
          </mxGeometry>
        </mxCell>
        <mxCell id="vVWOFLdrRgywpa_xTOqv-36" value="词条信息拉取" style="edgeLabel;html=1;align=center;verticalAlign=middle;resizable=0;points=[];rotation=90;fillColor=#99CCFF;" vertex="1" connectable="0" parent="vVWOFLdrRgywpa_xTOqv-35">
          <mxGeometry x="-0.0123" y="1" relative="1" as="geometry">
            <mxPoint as="offset" />
          </mxGeometry>
        </mxCell>
        <mxCell id="vVWOFLdrRgywpa_xTOqv-37" value="" style="endArrow=classic;html=1;rounded=0;exitX=0.25;exitY=1;exitDx=0;exitDy=0;fillColor=#99CCFF;" edge="1" parent="1">
          <mxGeometry width="50" height="50" relative="1" as="geometry">
            <mxPoint x="270" y="40" as="sourcePoint" />
            <mxPoint x="272.5" y="200" as="targetPoint" />
          </mxGeometry>
        </mxCell>
        <mxCell id="vVWOFLdrRgywpa_xTOqv-38" value="词条详情" style="edgeLabel;html=1;align=center;verticalAlign=middle;resizable=0;points=[];rotation=90;fillColor=#99CCFF;" vertex="1" connectable="0" parent="vVWOFLdrRgywpa_xTOqv-37">
          <mxGeometry x="-0.0123" y="1" relative="1" as="geometry">
            <mxPoint as="offset" />
          </mxGeometry>
        </mxCell>
        <mxCell id="vVWOFLdrRgywpa_xTOqv-41" value="" style="endArrow=classic;html=1;rounded=0;exitX=0.25;exitY=1;exitDx=0;exitDy=0;fillColor=#99CCFF;" edge="1" parent="1">
          <mxGeometry width="50" height="50" relative="1" as="geometry">
            <mxPoint x="290" y="40" as="sourcePoint" />
            <mxPoint x="292.5" y="200" as="targetPoint" />
          </mxGeometry>
        </mxCell>
        <mxCell id="vVWOFLdrRgywpa_xTOqv-42" value="词条反馈&lt;br&gt;" style="edgeLabel;html=1;align=center;verticalAlign=middle;resizable=0;points=[];rotation=90;fillColor=#99CCFF;" vertex="1" connectable="0" parent="vVWOFLdrRgywpa_xTOqv-41">
          <mxGeometry x="-0.0123" y="1" relative="1" as="geometry">
            <mxPoint as="offset" />
          </mxGeometry>
        </mxCell>
        <mxCell id="vVWOFLdrRgywpa_xTOqv-43" value="" style="html=1;fillColor=#99CCFF;" vertex="1" parent="1">
          <mxGeometry x="690" y="350" width="370" height="210" as="geometry" />
        </mxCell>
        <mxCell id="vVWOFLdrRgywpa_xTOqv-44" value="&amp;lt;&amp;lt;component&amp;gt;&amp;gt;&lt;br&gt;文本解析匹配服务" style="html=1;fillColor=#99CCFF;" vertex="1" parent="1">
          <mxGeometry x="780" y="415" width="190" height="95" as="geometry" />
        </mxCell>
        <mxCell id="vVWOFLdrRgywpa_xTOqv-45" value="" style="shape=module;align=left;spacingLeft=20;align=center;verticalAlign=top;fillColor=#99CCFF;" vertex="1" parent="1">
          <mxGeometry x="930" y="420" width="30" height="50" as="geometry" />
        </mxCell>
        <mxCell id="vVWOFLdrRgywpa_xTOqv-46" value="百科系统应用" style="text;html=1;strokeColor=none;fillColor=#99CCFF;align=center;verticalAlign=middle;whiteSpace=wrap;rounded=0;" vertex="1" parent="1">
          <mxGeometry x="830" y="360" width="90" height="30" as="geometry" />
        </mxCell>
        <mxCell id="vVWOFLdrRgywpa_xTOqv-67" value="词条详情" style="edgeStyle=orthogonalEdgeStyle;rounded=0;orthogonalLoop=1;jettySize=auto;html=1;entryX=0.948;entryY=-0.037;entryDx=0;entryDy=0;entryPerimeter=0;fillColor=#99CCFF;" edge="1" parent="1" source="vVWOFLdrRgywpa_xTOqv-47" target="vVWOFLdrRgywpa_xTOqv-6">
          <mxGeometry relative="1" as="geometry" />
        </mxCell>
        <mxCell id="vVWOFLdrRgywpa_xTOqv-81" style="edgeStyle=orthogonalEdgeStyle;rounded=0;orthogonalLoop=1;jettySize=auto;html=1;fillColor=#99CCFF;" edge="1" parent="1" source="vVWOFLdrRgywpa_xTOqv-47" target="vVWOFLdrRgywpa_xTOqv-78">
          <mxGeometry relative="1" as="geometry" />
        </mxCell>
        <mxCell id="vVWOFLdrRgywpa_xTOqv-47" value="移动端（京ME）" style="html=1;fillColor=#99CCFF;" vertex="1" parent="1">
          <mxGeometry x="700" y="-10" width="110" height="50" as="geometry" />
        </mxCell>
        <mxCell id="vVWOFLdrRgywpa_xTOqv-48" value="" style="endArrow=classic;html=1;rounded=0;exitX=0.25;exitY=1;exitDx=0;exitDy=0;fillColor=#99CCFF;" edge="1" parent="1">
          <mxGeometry width="50" height="50" relative="1" as="geometry">
            <mxPoint x="457.5" y="40" as="sourcePoint" />
            <mxPoint x="460" y="200" as="targetPoint" />
          </mxGeometry>
        </mxCell>
        <mxCell id="vVWOFLdrRgywpa_xTOqv-49" value="词条版本拉取" style="edgeLabel;html=1;align=center;verticalAlign=middle;resizable=0;points=[];rotation=90;fillColor=#99CCFF;" vertex="1" connectable="0" parent="vVWOFLdrRgywpa_xTOqv-48">
          <mxGeometry x="-0.0123" y="1" relative="1" as="geometry">
            <mxPoint as="offset" />
          </mxGeometry>
        </mxCell>
        <mxCell id="vVWOFLdrRgywpa_xTOqv-50" value="" style="endArrow=classic;html=1;rounded=0;exitX=0.25;exitY=1;exitDx=0;exitDy=0;fillColor=#99CCFF;" edge="1" parent="1">
          <mxGeometry width="50" height="50" relative="1" as="geometry">
            <mxPoint x="483.75" y="40" as="sourcePoint" />
            <mxPoint x="486.25" y="200" as="targetPoint" />
          </mxGeometry>
        </mxCell>
        <mxCell id="vVWOFLdrRgywpa_xTOqv-51" value="词条信息拉取" style="edgeLabel;html=1;align=center;verticalAlign=middle;resizable=0;points=[];rotation=90;fillColor=#99CCFF;" vertex="1" connectable="0" parent="vVWOFLdrRgywpa_xTOqv-50">
          <mxGeometry x="-0.0123" y="1" relative="1" as="geometry">
            <mxPoint as="offset" />
          </mxGeometry>
        </mxCell>
        <mxCell id="vVWOFLdrRgywpa_xTOqv-52" value="" style="endArrow=classic;html=1;rounded=0;exitX=0.25;exitY=1;exitDx=0;exitDy=0;fillColor=#99CCFF;" edge="1" parent="1">
          <mxGeometry width="50" height="50" relative="1" as="geometry">
            <mxPoint x="510" y="40" as="sourcePoint" />
            <mxPoint x="512.5" y="200" as="targetPoint" />
          </mxGeometry>
        </mxCell>
        <mxCell id="vVWOFLdrRgywpa_xTOqv-53" value="词条详情" style="edgeLabel;html=1;align=center;verticalAlign=middle;resizable=0;points=[];rotation=90;fillColor=#99CCFF;" vertex="1" connectable="0" parent="vVWOFLdrRgywpa_xTOqv-52">
          <mxGeometry x="-0.0123" y="1" relative="1" as="geometry">
            <mxPoint as="offset" />
          </mxGeometry>
        </mxCell>
        <mxCell id="vVWOFLdrRgywpa_xTOqv-54" value="" style="endArrow=classic;html=1;rounded=0;exitX=0.25;exitY=1;exitDx=0;exitDy=0;fillColor=#99CCFF;" edge="1" parent="1">
          <mxGeometry width="50" height="50" relative="1" as="geometry">
            <mxPoint x="530" y="40" as="sourcePoint" />
            <mxPoint x="532.5" y="200" as="targetPoint" />
          </mxGeometry>
        </mxCell>
        <mxCell id="vVWOFLdrRgywpa_xTOqv-55" value="词条反馈&lt;br&gt;" style="edgeLabel;html=1;align=center;verticalAlign=middle;resizable=0;points=[];rotation=90;fillColor=#99CCFF;" vertex="1" connectable="0" parent="vVWOFLdrRgywpa_xTOqv-54">
          <mxGeometry x="-0.0123" y="1" relative="1" as="geometry">
            <mxPoint as="offset" />
          </mxGeometry>
        </mxCell>
        <mxCell id="vVWOFLdrRgywpa_xTOqv-68" value="词条反馈" style="edgeStyle=orthogonalEdgeStyle;rounded=0;orthogonalLoop=1;jettySize=auto;html=1;entryX=1;entryY=0.5;entryDx=0;entryDy=0;fillColor=#99CCFF;" edge="1" parent="1" target="vVWOFLdrRgywpa_xTOqv-6">
          <mxGeometry relative="1" as="geometry">
            <mxPoint x="751.84" y="40" as="sourcePoint" />
            <mxPoint x="639.9999999999999" y="223.51999999999998" as="targetPoint" />
            <Array as="points">
              <mxPoint x="730" y="40" />
              <mxPoint x="730" y="80" />
              <mxPoint x="640" y="80" />
              <mxPoint x="640" y="220" />
            </Array>
          </mxGeometry>
        </mxCell>
        <mxCell id="vVWOFLdrRgywpa_xTOqv-82" style="edgeStyle=orthogonalEdgeStyle;rounded=0;orthogonalLoop=1;jettySize=auto;html=1;entryX=0.5;entryY=0;entryDx=0;entryDy=0;fillColor=#99CCFF;" edge="1" parent="1" source="vVWOFLdrRgywpa_xTOqv-69" target="vVWOFLdrRgywpa_xTOqv-78">
          <mxGeometry relative="1" as="geometry">
            <Array as="points">
              <mxPoint x="890" y="13" />
            </Array>
          </mxGeometry>
        </mxCell>
        <mxCell id="vVWOFLdrRgywpa_xTOqv-69" value="开放能力（其他应用接入）" style="html=1;fillColor=#E6E6E6;" vertex="1" parent="1">
          <mxGeometry x="950" y="-15" width="150" height="55" as="geometry" />
        </mxCell>
        <mxCell id="vVWOFLdrRgywpa_xTOqv-73" value="" style="shape=providedRequiredInterface;html=1;verticalLabelPosition=bottom;sketch=0;rotation=90;fillColor=#99CCFF;" vertex="1" parent="1">
          <mxGeometry x="870" y="270" width="40" height="40" as="geometry" />
        </mxCell>
        <mxCell id="vVWOFLdrRgywpa_xTOqv-78" value="文本解析匹配" style="text;html=1;strokeColor=none;fillColor=#99CCFF;align=center;verticalAlign=middle;whiteSpace=wrap;rounded=0;" vertex="1" parent="1">
          <mxGeometry x="850" y="240" width="80" height="30" as="geometry" />
        </mxCell>
        <mxCell id="vVWOFLdrRgywpa_xTOqv-80" value="" style="curved=1;endArrow=classic;html=1;rounded=0;entryX=1.05;entryY=0.65;entryDx=0;entryDy=0;entryPerimeter=0;fillColor=#99CCFF;" edge="1" parent="1" target="vVWOFLdrRgywpa_xTOqv-73">
          <mxGeometry width="50" height="50" relative="1" as="geometry">
            <mxPoint x="820" y="350" as="sourcePoint" />
            <mxPoint x="870" y="300" as="targetPoint" />
            <Array as="points">
              <mxPoint x="870" y="350" />
              <mxPoint x="850" y="320" />
            </Array>
          </mxGeometry>
        </mxCell>
        <mxCell id="vVWOFLdrRgywpa_xTOqv-84" value="" style="html=1;fillColor=#99CCFF;" vertex="1" parent="1">
          <mxGeometry x="200" y="-380" width="370" height="210" as="geometry" />
        </mxCell>
        <mxCell id="vVWOFLdrRgywpa_xTOqv-85" value="&amp;lt;&amp;lt;component&amp;gt;&amp;gt;&lt;br&gt;文本解析匹SDK" style="html=1;fillColor=#99CCFF;" vertex="1" parent="1">
          <mxGeometry x="290" y="-310" width="190" height="95" as="geometry" />
        </mxCell>
        <mxCell id="vVWOFLdrRgywpa_xTOqv-86" value="" style="shape=module;align=left;spacingLeft=20;align=center;verticalAlign=top;fillColor=#99CCFF;" vertex="1" parent="1">
          <mxGeometry x="440" y="-310" width="30" height="50" as="geometry" />
        </mxCell>
        <mxCell id="vVWOFLdrRgywpa_xTOqv-87" value="SDK" style="text;html=1;strokeColor=none;fillColor=#99CCFF;align=center;verticalAlign=middle;whiteSpace=wrap;rounded=0;" vertex="1" parent="1">
          <mxGeometry x="340" y="-370" width="90" height="30" as="geometry" />
        </mxCell>
        <mxCell id="vVWOFLdrRgywpa_xTOqv-88" value="" style="shape=providedRequiredInterface;html=1;verticalLabelPosition=bottom;sketch=0;rotation=-90;fillColor=#99CCFF;" vertex="1" parent="1">
          <mxGeometry x="354" y="-100" width="40" height="40" as="geometry" />
        </mxCell>
        <mxCell id="vVWOFLdrRgywpa_xTOqv-91" value="" style="curved=1;endArrow=classic;html=1;rounded=0;fillColor=#99CCFF;entryX=1;entryY=0.5;entryDx=0;entryDy=0;entryPerimeter=0;exitX=0.466;exitY=1.01;exitDx=0;exitDy=0;exitPerimeter=0;" edge="1" parent="1" source="vVWOFLdrRgywpa_xTOqv-84" target="vVWOFLdrRgywpa_xTOqv-88">
          <mxGeometry width="50" height="50" relative="1" as="geometry">
            <mxPoint x="280" y="-100" as="sourcePoint" />
            <mxPoint x="330" y="-150" as="targetPoint" />
            <Array as="points">
              <mxPoint x="330" y="-100" />
              <mxPoint x="390" y="-140" />
            </Array>
          </mxGeometry>
        </mxCell>
        <mxCell id="vVWOFLdrRgywpa_xTOqv-92" value="文本解析匹配" style="text;html=1;strokeColor=none;fillColor=#99CCFF;align=center;verticalAlign=middle;whiteSpace=wrap;rounded=0;" vertex="1" parent="1">
          <mxGeometry x="334" y="-60" width="80" height="30" as="geometry" />
        </mxCell>
      </root>
    </mxGraphModel>
  </diagram>
</mxfile>
